<?xml version="1.0" encoding="UTF-8"?>
<svg xmlns="http://www.w3.org/2000/svg" width="1600" height="960" viewBox="0 0 1600 960">
  <defs>
    <filter id="shadow" x="-20%" y="-20%" width="140%" height="140%">
      <feDropShadow dx="0" dy="14" stdDeviation="18" flood-color="#0f172a" flood-opacity="0.18"/>
    </filter>
  </defs>
  <style>
    .title { font: 800 28px 'Segoe UI', 'PingFang SC', 'Microsoft YaHei', sans-serif; fill: #0f172a; }
    .summary { font: 600 14px 'Segoe UI', 'PingFang SC', 'Microsoft YaHei', sans-serif; fill: #475569; }
    .note-title { font: 800 16px 'Segoe UI', 'PingFang SC', 'Microsoft YaHei', sans-serif; fill: #0f172a; }
    .note-body { font: 600 13px 'Segoe UI', 'PingFang SC', 'Microsoft YaHei', sans-serif; fill: #475569; }
    .badge-text { font: 800 16px 'Segoe UI', 'PingFang SC', 'Microsoft YaHei', sans-serif; fill: white; dominant-baseline: middle; text-anchor: middle; }
  </style>
  <image href="pricing-fiop-assigned.png" x="0" y="0" width="1600" height="960"/>
  <rect x="0" y="720" width="1600" height="240" fill="#f8fafc" fill-opacity="0.96"/>
  <rect x="24" y="736" width="1552" height="208" rx="28" fill="white" fill-opacity="0.92" filter="url(#shadow)"/>
  <text x="48" y="774" class="title">Pricing / Assigned FIOP</text>
  <text x="48" y="804" class="summary">Assigned operators can edit proposals and submit them for review, but cannot perform supervisor approval.</text>
  
  <rect x="0" y="52" width="1600" height="52" rx="14" fill="rgba(37,99,235,0.08)" stroke="#2563eb" stroke-width="4"/>
  <circle cx="18" cy="70" r="16" fill="#2563eb"/>
  <text x="18" y="71" class="badge-text">1</text>
  <rect x="36" y="824" width="500" height="98" rx="18" fill="#eff6ff" stroke="#bfdbfe" stroke-width="1.5"/>
  <circle cx="62" cy="850" r="14" fill="#2563eb"/>
  <text x="62" y="851" class="badge-text" style="font-size:13px">1</text>
  <text x="88" y="855" class="note-title">Pricing is still gated by corridor access</text>
  <text x="60" y="882" class="note-body">Unassigned operators must not open this page.</text>
<text x="60" y="900" class="note-body">Use the same page-level guard as detail and KYC.</text>

  <rect x="977" y="288" width="372" height="40" rx="14" fill="rgba(37,99,235,0.08)" stroke="#2563eb" stroke-width="4"/>
  <circle cx="995" cy="306" r="16" fill="#2563eb"/>
  <text x="995" y="307" class="badge-text">2</text>
  <rect x="554" y="824" width="500" height="98" rx="18" fill="#eff6ff" stroke="#bfdbfe" stroke-width="1.5"/>
  <circle cx="580" cy="850" r="14" fill="#2563eb"/>
  <text x="580" y="851" class="badge-text" style="font-size:13px">2</text>
  <text x="606" y="855" class="note-title">Operators can save and submit for review</text>
  <text x="578" y="882" class="note-body">Proposal editing and review submission are operator actions.</text>
<text x="578" y="900" class="note-body">They do not grant approval rights.</text>

  <rect x="160" y="340" width="1240" height="99" rx="14" fill="rgba(37,99,235,0.08)" stroke="#2563eb" stroke-width="4"/>
  <circle cx="178" cy="358" r="16" fill="#2563eb"/>
  <text x="178" y="359" class="badge-text">3</text>
  <rect x="1072" y="824" width="500" height="98" rx="18" fill="#eff6ff" stroke="#bfdbfe" stroke-width="1.5"/>
  <circle cx="1098" cy="850" r="14" fill="#2563eb"/>
  <text x="1098" y="851" class="badge-text" style="font-size:13px">3</text>
  <text x="1124" y="855" class="note-title">Schedule management belongs to the operator side</text>
  <text x="1096" y="882" class="note-body">Create Pricing Schedule and related actions stay editable.</text>
<text x="1096" y="900" class="note-body">Approval must stay in the supervisor queue.</text>
</svg>